<?xml version="1.0" standalone="no"?>
<!DOCTYPE svg PUBLIC "-//W3C//DTD SVG 20010904//EN"
 "http://www.w3.org/TR/2001/REC-SVG-20010904/DTD/svg10.dtd">
<svg version="1.0" xmlns="http://www.w3.org/2000/svg"
 width="512.000000pt" height="512.000000pt" viewBox="0 0 512.000000 512.000000"
 preserveAspectRatio="xMidYMid meet">
<metadata>
Created by potrace 1.14, written by Peter Selinger 2001-2017
</metadata>
<g transform="translate(0.000000,512.000000) scale(0.100000,-0.100000)"
fill="#000000" stroke="none">
<path d="M485 5085 c-205 -45 -366 -178 -438 -362 -25 -63 -47 -169 -47 -221
0 -78 37 -201 90 -305 28 -54 445 -781 927 -1615 481 -834 961 -1665 1066
-1847 306 -531 342 -577 502 -655 116 -57 227 -74 340 -55 152 27 250 79 348
184 152 165 199 416 114 616 -22 51 -335 600 -1119 1964 -242 419 -438 764
-436 766 2 2 1218 -324 2543 -682 94 -25 232 -21 330 11 412 133 549 644 259
965 -60 66 -143 125 -214 152 -42 16 -557 155 -3115 839 -1053 282 -1016 274
-1150 245z"/>
</g>
</svg>
