<?xml version="1.0" standalone="no"?>
<!DOCTYPE svg PUBLIC "-//W3C//DTD SVG 20010904//EN"
 "http://www.w3.org/TR/2001/REC-SVG-20010904/DTD/svg10.dtd">
<svg version="1.0" xmlns="http://www.w3.org/2000/svg"
 width="512.000000pt" height="512.000000pt" viewBox="0 0 512.000000 512.000000"
 preserveAspectRatio="xMidYMid meet">
<metadata>
Created by potrace 1.14, written by Peter Selinger 2001-2017
</metadata>
<g transform="translate(0.000000,512.000000) scale(0.100000,-0.100000)"
fill="#000000" stroke="none">
<path d="M499 5096 c-4 -4 -19 -9 -35 -12 -138 -25 -284 -126 -368 -255 -60
-92 -89 -187 -93 -305 -3 -127 19 -216 84 -329 25 -44 57 -100 71 -125 14 -25
36 -62 49 -82 12 -21 23 -40 23 -42 0 -2 27 -50 60 -106 33 -56 60 -103 60
-105 0 -2 18 -33 40 -69 22 -36 40 -70 40 -76 0 -5 3 -10 8 -10 4 0 23 -31 42
-68 19 -37 38 -68 43 -70 4 -2 7 -9 7 -16 0 -8 8 -24 19 -37 10 -13 30 -46 45
-74 15 -27 37 -66 48 -85 11 -19 65 -114 120 -210 56 -96 113 -195 128 -220
27 -44 58 -98 96 -170 11 -19 22 -37 25 -40 3 -3 9 -12 13 -20 4 -8 12 -24 19
-35 7 -11 30 -52 52 -90 22 -39 45 -79 52 -90 7 -11 19 -33 28 -50 9 -16 24
-43 34 -60 10 -16 27 -46 38 -65 85 -147 175 -303 192 -331 11 -19 28 -50 39
-69 69 -123 193 -337 202 -347 5 -7 10 -14 10 -17 0 -2 23 -44 51 -93 29 -48
63 -108 77 -133 13 -25 28 -49 32 -55 4 -5 19 -30 32 -55 14 -25 48 -85 77
-133 28 -49 51 -93 51 -98 0 -5 5 -9 10 -9 6 0 10 -4 10 -9 0 -5 23 -49 51
-98 29 -48 65 -113 82 -143 16 -30 38 -66 47 -80 9 -14 20 -32 23 -40 4 -8 18
-33 32 -55 14 -22 28 -47 32 -55 43 -96 153 -216 247 -269 98 -57 189 -79 303
-76 144 3 206 21 313 90 61 40 160 130 160 146 0 4 6 14 13 21 23 23 68 125
86 195 21 83 20 204 -3 292 -14 53 -78 194 -96 211 -3 3 -11 16 -18 29 -8 13
-23 40 -35 60 -11 20 -30 54 -42 76 -13 22 -61 107 -109 188 -47 82 -86 152
-86 158 0 5 -4 9 -9 9 -5 0 -15 16 -22 35 -7 19 -17 35 -21 35 -4 0 -8 4 -8 9
0 5 -63 118 -141 252 -77 133 -151 261 -163 283 -13 23 -108 187 -211 366
-103 179 -201 350 -218 380 -16 30 -36 62 -43 71 -8 8 -14 18 -14 21 0 4 -20
41 -45 82 -25 42 -45 79 -45 81 0 3 -12 24 -27 48 -31 48 -41 64 -73 127 -13
25 -27 47 -31 50 -3 3 -21 32 -38 65 -18 33 -45 81 -61 108 -33 52 -30 54 50
31 119 -33 159 -43 182 -48 12 -2 35 -9 49 -14 14 -6 43 -13 63 -16 21 -4 42
-9 47 -12 7 -4 181 -52 249 -68 8 -2 76 -20 150 -40 129 -35 147 -40 188 -50
9 -3 32 -9 50 -15 17 -5 32 -7 32 -4 0 3 6 1 13 -5 6 -5 26 -13 42 -15 17 -3
104 -26 195 -50 91 -24 179 -48 195 -52 44 -12 45 -12 48 -15 2 -2 22 -7 59
-15 15 -3 39 -10 53 -15 14 -5 25 -7 25 -5 0 2 12 0 28 -6 15 -6 34 -12 42
-14 8 -2 76 -20 150 -40 112 -30 195 -52 265 -70 6 -1 17 -5 25 -8 8 -3 42
-12 75 -21 33 -8 94 -24 135 -36 119 -33 200 -46 270 -44 36 1 65 3 65 4 0 1
16 3 36 6 48 6 143 44 200 80 53 33 139 110 139 123 0 5 4 11 9 13 18 6 82
124 102 188 27 85 34 234 13 315 -52 210 -233 397 -424 441 -50 11 -43 9 -180
47 -151 41 -652 176 -677 182 -22 5 -69 18 -148 40 -33 9 -67 18 -75 20 -8 2
-40 11 -70 19 -30 8 -91 24 -135 36 -44 11 -94 25 -111 31 -17 5 -40 11 -50
13 -21 5 -68 17 -418 111 -137 37 -257 68 -265 70 -48 11 -542 146 -608 166
-18 6 -40 12 -50 14 -17 3 -182 46 -303 79 -30 8 -80 21 -110 29 -30 8 -80 22
-111 31 -31 9 -66 19 -78 21 -13 2 -31 7 -41 10 -10 3 -27 8 -37 10 -10 2 -76
20 -148 40 -71 19 -137 37 -145 39 -8 1 -22 5 -30 8 -90 31 -191 51 -280 55
-58 3 -108 2 -111 -1z"/>
</g>
</svg>
